<svg width="851" height="29" viewBox="0 0 851 29" fill="none" xmlns="http://www.w3.org/2000/svg">
<path fill-rule="evenodd" clip-rule="evenodd" d="M0.448364 14.5833C0.448364 12.0783 1.11004 9.62156 2.33837 7.49656C3.61504 5.32323 5.41003 3.52822 7.58337 2.25155C9.70837 1.02322 12.165 0.361551 14.67 0.361551H836.055C838.558 0.361551 841.015 1.02322 843.142 2.25155C845.315 3.52822 847.11 5.32323 848.385 7.49656C849.615 9.62156 850.275 12.0783 850.275 14.5833C850.275 17.0866 849.615 19.5432 848.385 21.7166C847.11 23.8432 845.315 25.6382 843.142 26.9132C841.015 28.1416 838.558 28.8032 836.055 28.8032H14.67C12.165 28.8032 9.70837 28.1416 7.58337 26.9132C5.41003 25.6382 3.61504 23.8432 2.33837 21.7166C1.11004 19.5432 0.448364 17.0866 0.448364 14.5833Z" fill="#282C32"/>
</svg>
