<svg width="94" height="98" viewBox="0 0 94 98" fill="none" xmlns="http://www.w3.org/2000/svg">
<g clip-path="url(#clip0_7_236)">
<path d="M0.73999 18.7818V96.1469C20.124 96.5947 62.0402 97.2216 74.6327 96.1469C87.225 95.0719 92.2676 82.7862 93.215 76.7776V1.2038C72.4829 0.867918 28.3513 0.554426 17.6828 1.98753C7.0143 3.42063 1.94238 13.7808 0.73999 18.7818Z" fill="#6B02BF" stroke="#6B02BF" stroke-width="0.9"/>
<path d="M47.0869 76.3816C61.9378 76.3816 73.9768 64.0505 73.9768 48.8392C73.9768 33.628 61.9378 21.2969 47.0869 21.2969C32.2361 21.2969 20.1971 33.628 20.1971 48.8392C20.1971 64.0505 32.2361 76.3816 47.0869 76.3816Z" fill="white"/>
<path d="M47.0868 63.6181C55.0555 63.6181 61.5155 57.0014 61.5155 48.8392C61.5155 40.6771 55.0555 34.0604 47.0868 34.0604C39.118 34.0604 32.658 40.6771 32.658 48.8392C32.658 57.0014 39.118 63.6181 47.0868 63.6181Z" fill="#6B02BF"/>
<path d="M46.9775 60.0354C53.0748 60.0354 58.0177 54.9726 58.0177 48.7273C58.0177 42.482 53.0748 37.4192 46.9775 37.4192C40.8802 37.4192 35.9373 42.482 35.9373 48.7273C35.9373 54.9726 40.8802 60.0354 46.9775 60.0354Z" fill="white"/>
<path d="M61.4063 37.4193C63.2777 37.4193 64.7948 35.8654 64.7948 33.9486C64.7948 32.0317 63.2777 30.4778 61.4063 30.4778C59.5348 30.4778 58.0177 32.0317 58.0177 33.9486C58.0177 35.8654 59.5348 37.4193 61.4063 37.4193Z" fill="#6B02BF"/>
<path d="M61.4063 35.4041C62.1911 35.4041 62.8273 34.7524 62.8273 33.9486C62.8273 33.1447 62.1911 32.4931 61.4063 32.4931C60.6215 32.4931 59.9853 33.1447 59.9853 33.9486C59.9853 34.7524 60.6215 35.4041 61.4063 35.4041Z" fill="white"/>
<path d="M46.9775 32.0451C48.849 32.0451 50.3661 30.4911 50.3661 28.5743C50.3661 26.6574 48.849 25.1035 46.9775 25.1035C45.106 25.1035 43.5889 26.6574 43.5889 28.5743C43.5889 30.4911 45.106 32.0451 46.9775 32.0451Z" fill="#6B02BF"/>
<path d="M46.9775 30.0298C47.7623 30.0298 48.3985 29.3781 48.3985 28.5743C48.3985 27.7705 47.7623 27.1188 46.9775 27.1188C46.1927 27.1188 45.5565 27.7705 45.5565 28.5743C45.5565 29.3781 46.1927 30.0298 46.9775 30.0298Z" fill="white"/>
<path d="M32.7674 68.3205C34.6388 68.3205 36.1559 66.7666 36.1559 64.8497C36.1559 62.9328 34.6388 61.3789 32.7674 61.3789C30.8959 61.3789 29.3788 62.9328 29.3788 64.8497C29.3788 66.7666 30.8959 68.3205 32.7674 68.3205Z" fill="#6B02BF"/>
<path d="M32.7674 66.3052C33.5522 66.3052 34.1884 65.6535 34.1884 64.8497C34.1884 64.0458 33.5522 63.3942 32.7674 63.3942C31.9826 63.3942 31.3464 64.0458 31.3464 64.8497C31.3464 65.6535 31.9826 66.3052 32.7674 66.3052Z" fill="white"/>
<path d="M61.4063 66.977C63.2777 66.977 64.7948 65.423 64.7948 63.5062C64.7948 61.5893 63.2777 60.0354 61.4063 60.0354C59.5348 60.0354 58.0177 61.5893 58.0177 63.5062C58.0177 65.423 59.5348 66.977 61.4063 66.977Z" fill="#6B02BF"/>
<path d="M61.4063 64.9617C62.1911 64.9617 62.8273 64.3101 62.8273 63.5062C62.8273 62.7024 62.1911 62.0507 61.4063 62.0507C60.6215 62.0507 59.9853 62.7024 59.9853 63.5062C59.9853 64.3101 60.6215 64.9617 61.4063 64.9617Z" fill="white"/>
<path d="M46.9775 73.023C48.849 73.023 50.3661 71.4691 50.3661 69.5522C50.3661 67.6353 48.849 66.0814 46.9775 66.0814C45.106 66.0814 43.5889 67.6353 43.5889 69.5522C43.5889 71.4691 45.106 73.023 46.9775 73.023Z" fill="#6B02BF"/>
<path d="M46.9775 71.0077C47.7623 71.0077 48.3985 70.3561 48.3985 69.5522C48.3985 68.7484 47.7623 68.0967 46.9775 68.0967C46.1927 68.0967 45.5565 68.7484 45.5565 69.5522C45.5565 70.3561 46.1927 71.0077 46.9775 71.0077Z" fill="white"/>
<path d="M67.309 52.1982C69.1805 52.1982 70.6976 50.6443 70.6976 48.7274C70.6976 46.8106 69.1805 45.2567 67.309 45.2567C65.4376 45.2567 63.9205 46.8106 63.9205 48.7274C63.9205 50.6443 65.4376 52.1982 67.309 52.1982Z" fill="#6B02BF"/>
<path d="M67.321 50.091C68.1058 50.091 68.742 49.4393 68.742 48.6355C68.742 47.8316 68.1058 47.18 67.321 47.18C66.5362 47.18 65.9 47.8316 65.9 48.6355C65.9 49.4393 66.5362 50.091 67.321 50.091Z" fill="white"/>
<path d="M31.4557 38.0911C33.3272 38.0911 34.8443 36.5372 34.8443 34.6203C34.8443 32.7034 33.3272 31.1495 31.4557 31.1495C29.5843 31.1495 28.0671 32.7034 28.0671 34.6203C28.0671 36.5372 29.5843 38.0911 31.4557 38.0911Z" fill="#6B02BF"/>
<path d="M31.4557 36.0758C32.2405 36.0758 32.8768 35.4242 32.8768 34.6203C32.8768 33.8165 32.2405 33.1648 31.4557 33.1648C30.6709 33.1648 30.0347 33.8165 30.0347 34.6203C30.0347 35.4242 30.6709 36.0758 31.4557 36.0758Z" fill="white"/>
<path d="M26.6461 52.1982C28.5176 52.1982 30.0347 50.6443 30.0347 48.7274C30.0347 46.8106 28.5176 45.2567 26.6461 45.2567C24.7747 45.2567 23.2576 46.8106 23.2576 48.7274C23.2576 50.6443 24.7747 52.1982 26.6461 52.1982Z" fill="#6B02BF"/>
<path d="M26.646 50.1827C27.4308 50.1827 28.067 49.5311 28.067 48.7273C28.067 47.9234 27.4308 47.2718 26.646 47.2718C25.8612 47.2718 25.225 47.9234 25.225 48.7273C25.225 49.5311 25.8612 50.1827 26.646 50.1827Z" fill="white"/>
</g>
<defs>
<clipPath id="clip0_7_236">
<rect width="93.6" height="96.84" fill="white" transform="translate(0.200012 0.380005)"/>
</clipPath>
</defs>
</svg>
